<?xml version="1.0" encoding="UTF-8" standalone="no"?>
<!-- Created with Inkscape (http://www.inkscape.org/) -->

<svg
   xmlns:dc="http://purl.org/dc/elements/1.1/"
   xmlns:cc="http://creativecommons.org/ns#"
   xmlns:rdf="http://www.w3.org/1999/02/22-rdf-syntax-ns#"
   xmlns:svg="http://www.w3.org/2000/svg"
   xmlns="http://www.w3.org/2000/svg"
   version="1.1"
   width="128"
   height="128"
   id="svg2"
   viewBox="0 0 128 128">
  <defs
     id="defs4" />
  <metadata
     id="metadata7">
    <rdf:RDF>
      <cc:Work
         rdf:about="">
        <dc:format>image/svg+xml</dc:format>
        <dc:type
           rdf:resource="http://purl.org/dc/dcmitype/StillImage" />
        <dc:title></dc:title>
      </cc:Work>
    </rdf:RDF>
  </metadata>
  <g
     transform="translate(0,-924.36218)"
     id="layer1">
    <path
       d="m 64,24 c -22.091391,0 -40,17.908609 -40,40 0,22.091391 17.908609,40 40,40 22.091391,0 40,-17.908609 40,-40 C 104,41.908609 86.091391,24 64,24 z m 0,27.5 c 6.897022,0 12.5,5.60298 12.5,12.5 0,6.89702 -5.602978,12.5 -12.5,12.5 -6.897022,0 -12.5,-5.60298 -12.5,-12.5 0,-6.89702 5.602978,-12.5 12.5,-12.5 z m 0,2.21875 c -5.672085,0 -10.28125,4.60964 -10.28125,10.28125 0,5.67161 4.609165,10.28125 10.28125,10.28125 5.672085,0 10.28125,-4.60964 10.28125,-10.28125 C 74.28125,58.32839 69.672085,53.71875 64,53.71875 z M 64,59 c 2.761424,0 5,2.238576 5,5 0,2.761424 -2.238576,5 -5,5 -2.761424,0 -5,-2.238576 -5,-5 0,-2.761424 2.238576,-5 5,-5 z"
       transform="translate(0,924.36218)"
       id="path2985"
       style="fill:#000000;fill-opacity:0.09803922;fill-rule:evenodd;stroke:none" />
  </g>
</svg>
