<?xml version="1.0" encoding="UTF-8" standalone="no"?>
<svg
   xmlns:dc="http://purl.org/dc/elements/1.1/"
   xmlns:cc="http://creativecommons.org/ns#"
   xmlns:rdf="http://www.w3.org/1999/02/22-rdf-syntax-ns#"
   xmlns:svg="http://www.w3.org/2000/svg"
   xmlns="http://www.w3.org/2000/svg"
   version="1.1"
   id="svg3371"
   viewBox="0 0 268 72"
   height="72"
   width="268">
  <defs
     id="defs3373" />
  <metadata
     id="metadata3376">
    <rdf:RDF>
      <cc:Work
         rdf:about="">
        <dc:format>image/svg+xml</dc:format>
        <dc:type
           rdf:resource="http://purl.org/dc/dcmitype/StillImage" />
        <dc:title></dc:title>
      </cc:Work>
    </rdf:RDF>
  </metadata>
  <g
     transform="translate(-14.886055,-875.1203)"
     id="layer1">
    <g
       style="fill:#000000"
       transform="translate(17.886055,-103.24188)"
       id="g4151">
      <rect
         style="opacity:1;fill:#000000;fill-opacity:1;stroke:none"
         id="rect4725"
         width="25"
         height="8"
         x="5"
         y="1034.3622" />
      <rect
         y="1034.3622"
         x="33"
         height="8"
         width="25"
         id="rect4727"
         style="opacity:1;fill:#000000;fill-opacity:1;stroke:none" />
      <rect
         style="opacity:1;fill:#000000;fill-opacity:1;stroke:none"
         id="rect4729"
         width="25"
         height="8"
         x="61"
         y="1034.3622" />
      <rect
         y="1024.3622"
         x="5"
         height="8"
         width="25"
         id="rect4737"
         style="opacity:1;fill:#000000;fill-opacity:1;stroke:none" />
      <rect
         style="opacity:1;fill:#000000;fill-opacity:1;stroke:none"
         id="rect4739"
         width="25"
         height="8"
         x="5"
         y="1014.3622" />
      <rect
         style="opacity:1;fill:#000000;fill-opacity:1;stroke:none"
         id="rect4741"
         width="25"
         height="8"
         x="33"
         y="1024.3622" />
      <rect
         y="1014.3622"
         x="33"
         height="8"
         width="25"
         id="rect4743"
         style="opacity:1;fill:#000000;fill-opacity:1;stroke:none" />
      <rect
         style="opacity:1;fill:#000000;fill-opacity:1;stroke:none"
         id="rect4745"
         width="25"
         height="8"
         x="33"
         y="1004.3622" />
      <rect
         y="994.36218"
         x="33"
         height="8"
         width="25"
         id="rect4747"
         style="opacity:1;fill:#000000;fill-opacity:1;stroke:none" />
      <rect
         y="1024.3622"
         x="61"
         height="8"
         width="25"
         id="rect4749"
         style="opacity:1;fill:#000000;fill-opacity:1;stroke:none" />
    </g>
    <g
       id="text3405"
       style="font-style:normal;font-weight:normal;font-size:77.35599518px;line-height:125%;font-family:sans-serif;letter-spacing:0px;word-spacing:0px;fill:#000000;fill-opacity:1;stroke:none;stroke-width:1px;stroke-linecap:butt;stroke-linejoin:miter;stroke-opacity:1">
      <path
         id="path3410"
         style="font-style:normal;font-variant:normal;font-weight:300;font-stretch:normal;font-family:'Open Sans';-inkscape-font-specification:'Open Sans Light'"
         d="m 136.85141,938.36487 -3.89046,0 0,-51.59585 -17.94146,0 0,-3.62606 39.77337,0 0,3.62606 -17.94145,0 0,51.59585 z" />
      <path
         id="path3412"
         style="font-style:normal;font-variant:normal;font-weight:300;font-stretch:normal;font-family:'Open Sans';-inkscape-font-specification:'Open Sans Light'"
         d="m 165.25556,897.30727 0,26.59112 q 0,6.19452 2.60623,9.02738 2.60624,2.79509 8.0831,2.79509 7.32767,0 10.76487,-3.7016 3.47498,-3.70161 3.47498,-12.0491 l 0,-22.66289 3.70161,0 0,41.0576 -3.17281,0 -0.67989,-5.66572 -0.22662,0 q -4.00378,6.42115 -14.23985,6.42115 -14.01322,0 -14.01322,-14.99528 l 0,-26.81775 3.7016,0 z" />
      <path
         id="path3414"
         style="font-style:normal;font-variant:normal;font-weight:300;font-stretch:normal;font-family:'Open Sans';-inkscape-font-specification:'Open Sans Light'"
         d="m 236.26594,938.36487 0,-26.6289 q 0,-6.19452 -2.60623,-8.98961 -2.60623,-2.83286 -8.0831,-2.83286 -7.36544,0 -10.80264,3.73938 -3.39943,3.7016 -3.39943,12.0491 l 0,22.66289 -3.73938,0 0,-41.0576 3.1728,0 0.71766,5.62795 0.22663,0 q 4.00378,-6.42115 14.23985,-6.42115 13.97545,0 13.97545,14.99527 l 0,26.85553 -3.70161,0 z" />
      <path
         id="path3416"
         style="font-style:normal;font-variant:normal;font-weight:300;font-stretch:normal;font-family:'Open Sans';-inkscape-font-specification:'Open Sans Light'"
         d="m 269.4293,896.51407 q 2.60623,0 5.59018,0.5288 l -0.71766,3.58829 q -2.56846,-0.64212 -5.32578,-0.64212 -5.25023,0 -8.6119,4.45704 -3.36166,4.45703 -3.36166,11.2559 l 0,22.66289 -3.73938,0 0,-41.0576 3.17281,0 0.37771,7.40321 0.2644,0 q 2.53069,-4.53258 5.40133,-6.34561 2.87063,-1.8508 6.94995,-1.8508 z" />
    </g>
  </g>
</svg>
