<?xml version="1.0" encoding="UTF-8" standalone="no"?>
<!-- Created with Inkscape (http://www.inkscape.org/) -->

<svg
   xmlns:dc="http://purl.org/dc/elements/1.1/"
   xmlns:cc="http://creativecommons.org/ns#"
   xmlns:rdf="http://www.w3.org/1999/02/22-rdf-syntax-ns#"
   xmlns:svg="http://www.w3.org/2000/svg"
   xmlns="http://www.w3.org/2000/svg"
   xmlns:sodipodi="http://sodipodi.sourceforge.net/DTD/sodipodi-0.dtd"
   xmlns:inkscape="http://www.inkscape.org/namespaces/inkscape"
   width="512"
   height="512"
   id="svg2"
   version="1.1"
   inkscape:version="0.48.4 r"
   sodipodi:docname="TunrLogo.svg"
   inkscape:export-filename="C:\Users\t-hamc\OneDrive @ Microsoft\TunrLogo.png"
   inkscape:export-xdpi="90"
   inkscape:export-ydpi="90">
  <defs
     id="defs4">
    <clipPath
       clipPathUnits="userSpaceOnUse"
       id="clipPath5370">
      <g
         id="g5372"
         style="fill:#000000;fill-opacity:1">
        <rect
           ry="0"
           y="1047.3622"
           x="-35.860416"
           height="5"
           width="571.74597"
           id="rect5374"
           style="fill:#000000;fill-opacity:1" />
        <rect
           style="fill:#000000;fill-opacity:1"
           id="rect5376"
           width="571.74597"
           height="5"
           x="-35.860416"
           y="1037.3622"
           ry="0" />
        <rect
           ry="0"
           y="1027.3622"
           x="-35.860416"
           height="5"
           width="571.74597"
           id="rect5378"
           style="fill:#000000;fill-opacity:1" />
        <rect
           style="fill:#000000;fill-opacity:1"
           id="rect5380"
           width="571.74597"
           height="5"
           x="-35.860416"
           y="1017.3622"
           ry="0" />
        <rect
           ry="0"
           y="1007.3622"
           x="-35.860416"
           height="5"
           width="571.74597"
           id="rect5382"
           style="fill:#000000;fill-opacity:1" />
        <rect
           style="fill:#000000;fill-opacity:1"
           id="rect5384"
           width="571.74597"
           height="5"
           x="-35.860416"
           y="997.36218"
           ry="0" />
        <rect
           ry="0"
           y="987.36218"
           x="-35.860416"
           height="5"
           width="571.74597"
           id="rect5386"
           style="fill:#000000;fill-opacity:1" />
        <rect
           style="fill:#000000;fill-opacity:1"
           id="rect5388"
           width="571.74597"
           height="5"
           x="-35.860416"
           y="977.36218"
           ry="0" />
        <rect
           ry="0"
           y="967.36218"
           x="-35.860416"
           height="5"
           width="571.74597"
           id="rect5390"
           style="fill:#000000;fill-opacity:1" />
        <rect
           style="fill:#000000;fill-opacity:1"
           id="rect5392"
           width="571.74597"
           height="5"
           x="-35.860416"
           y="957.36218"
           ry="0" />
        <rect
           ry="0"
           y="947.36218"
           x="-35.860416"
           height="5"
           width="571.74597"
           id="rect5394"
           style="fill:#000000;fill-opacity:1" />
        <rect
           style="fill:#000000;fill-opacity:1"
           id="rect5396"
           width="571.74597"
           height="5"
           x="-35.860416"
           y="937.36218"
           ry="0" />
        <rect
           ry="0"
           y="927.36218"
           x="-35.860416"
           height="5"
           width="571.74597"
           id="rect5398"
           style="fill:#000000;fill-opacity:1" />
        <rect
           style="fill:#000000;fill-opacity:1"
           id="rect5400"
           width="571.74597"
           height="5"
           x="-35.860416"
           y="917.36218"
           ry="0" />
      </g>
    </clipPath>
  </defs>
  <sodipodi:namedview
     id="base"
     pagecolor="#000000"
     bordercolor="#666666"
     borderopacity="1.0"
     inkscape:pageopacity="1"
     inkscape:pageshadow="2"
     inkscape:zoom="0.98608254"
     inkscape:cx="273.94747"
     inkscape:cy="246.39037"
     inkscape:document-units="px"
     inkscape:current-layer="layer1"
     showgrid="false"
     inkscape:window-width="1600"
     inkscape:window-height="837"
     inkscape:window-x="-8"
     inkscape:window-y="-8"
     inkscape:window-maximized="1" />
  <metadata
     id="metadata7">
    <rdf:RDF>
      <cc:Work
         rdf:about="">
        <dc:format>image/svg+xml</dc:format>
        <dc:type
           rdf:resource="http://purl.org/dc/dcmitype/StillImage" />
        <dc:title></dc:title>
      </cc:Work>
    </rdf:RDF>
  </metadata>
  <g
     inkscape:label="Layer 1"
     inkscape:groupmode="layer"
     id="layer1"
     transform="translate(0,-540.36218)">
    <path
       style="fill:#ffffff"
       d="M 0 0 L 0 512 L 117.3125 320.71875 L 108.625 320.71875 L 108.625 198.15625 L 66 198.15625 L 66 189.5625 L 160.46875 189.5625 L 160.46875 198.15625 L 117.84375 198.15625 L 117.84375 319.84375 L 314 0 L 0 0 z "
       transform="translate(0,540.36218)"
       id="rect3776" />
    <g
       style="font-size:40.8267746px;font-style:normal;font-weight:normal;line-height:125%;letter-spacing:0px;word-spacing:0px;fill:#000000;fill-opacity:1;stroke:none;font-family:Sans"
       id="text3753">
      <path
         d="m 185.31067,763.55625 0,63.15392 c -3e-5,9.80802 2.06324,16.93974 6.1898,21.39518 4.1265,4.45547 10.52561,6.6832 19.19736,6.6832 11.60207,0 20.13921,-2.93043 25.61142,-8.79132 5.47206,-5.86085 8.20813,-15.39971 8.20822,-28.61662 l 0,-53.82436 8.79131,0 0,97.5118 -7.53541,0 -1.61473,-13.45609 -0.53825,0 c -6.33939,10.16683 -17.61259,15.25024 -33.81964,15.25024 -22.18762,0 -33.28141,-11.87125 -33.28139,-35.61379 l 0,-63.69216 z"
         style="font-size:183.7204895px;font-variant:normal;font-weight:300;font-stretch:normal;text-align:start;line-height:125%;writing-mode:lr-tb;text-anchor:start;font-family:Open Sans Light;-inkscape-font-specification:'Open Sans Light, Light'"
         id="path3902" />
      <path
         d="m 353.96032,861.06805 0,-63.24362 c -8e-5,-9.80792 -2.06335,-16.93964 -6.1898,-21.39519 -4.12661,-4.45537 -10.52572,-6.6831 -19.19735,-6.68319 -11.662,9e-5 -20.19913,2.94548 -25.61143,8.83617 -5.41237,5.89085 -8.11853,15.44467 -8.11851,28.66147 l 0,53.82436 -8.88102,0 0,-97.5118 7.53541,0 1.70444,13.36638 0.53825,0 c 6.33928,-10.16672 17.61248,-15.25013 33.81964,-15.25023 22.12771,10e-5 33.19159,11.87135 33.19169,35.61379 l 0,63.78186 z"
         style="font-size:183.7204895px;font-variant:normal;font-weight:300;font-stretch:normal;text-align:start;line-height:125%;writing-mode:lr-tb;text-anchor:start;font-family:Open Sans Light;-inkscape-font-specification:'Open Sans Light, Light'"
         id="path3904" />
      <path
         d="m 432.72332,761.6724 c 4.12647,10e-5 8.55203,0.41873 13.27668,1.2559 l -1.70444,8.52219 c -4.06679,-1.01659 -8.28303,-1.52493 -12.64873,-1.52502 -8.31292,9e-5 -15.13066,3.52857 -20.45326,10.58546 -5.32265,7.05704 -7.98397,15.96795 -7.98394,26.73276 l 0,53.82436 -8.88102,0 0,-97.5118 7.53541,0 0.89707,17.58263 0.62795,0 c 4.0069,-7.1765 8.28294,-12.21505 12.82814,-15.11568 4.54513,-2.90044 10.04717,-4.3507 16.50614,-4.3508 z"
         style="font-size:183.7204895px;font-variant:normal;font-weight:300;font-stretch:normal;text-align:start;line-height:125%;writing-mode:lr-tb;text-anchor:start;font-family:Open Sans Light;-inkscape-font-specification:'Open Sans Light, Light'"
         id="path3906" />
    </g>
    <g
       style="font-size:40.82677460000000000px;font-style:normal;font-weight:normal;line-height:125%;letter-spacing:0px;word-spacing:0px;fill:#ffffff;fill-opacity:1;stroke:none;font-family:Sans"
       id="text3778">
      <path
         d="m 185.31067,763.55625 0,63.15392 c -3e-5,9.80802 2.06324,16.93974 6.1898,21.39518 4.1265,4.45547 10.52561,6.6832 19.19736,6.6832 11.60207,0 20.13921,-2.93043 25.61142,-8.79132 5.47206,-5.86085 8.20813,-15.39971 8.20822,-28.61662 l 0,-53.82436 8.79131,0 0,97.5118 -7.53541,0 -1.61473,-13.45609 -0.53825,0 c -6.33939,10.16683 -17.61259,15.25024 -33.81964,15.25024 -22.18762,0 -33.28141,-11.87125 -33.28139,-35.61379 l 0,-63.69216 z"
         style="font-size:183.72048950000001000px;font-variant:normal;font-weight:300;font-stretch:normal;text-align:start;line-height:125%;writing-mode:lr-tb;text-anchor:start;font-family:Open Sans Light;-inkscape-font-specification:'Open Sans Light, Light';fill:#ffffff"
         id="path3785" />
      <path
         d="m 353.96032,861.06805 0,-63.24362 c -8e-5,-9.80792 -2.06335,-16.93964 -6.1898,-21.39519 -4.12661,-4.45537 -10.52572,-6.6831 -19.19735,-6.68319 -11.662,9e-5 -20.19913,2.94548 -25.61143,8.83617 -5.41237,5.89085 -8.11853,15.44467 -8.11851,28.66147 l 0,53.82436 -8.88102,0 0,-97.5118 7.53541,0 1.70444,13.36638 0.53825,0 c 6.33928,-10.16672 17.61248,-15.25013 33.81964,-15.25023 22.12771,10e-5 33.19159,11.87135 33.19169,35.61379 l 0,63.78186 z"
         style="font-size:183.72048950000001000px;font-variant:normal;font-weight:300;font-stretch:normal;text-align:start;line-height:125%;writing-mode:lr-tb;text-anchor:start;font-family:Open Sans Light;-inkscape-font-specification:'Open Sans Light, Light';fill:#ffffff"
         id="path3787" />
      <path
         d="m 432.72332,761.6724 c 4.12647,10e-5 8.55203,0.41873 13.27668,1.2559 l -1.70444,8.52219 c -4.06679,-1.01659 -8.28303,-1.52493 -12.64873,-1.52502 -8.31292,9e-5 -15.13066,3.52857 -20.45326,10.58546 -5.32265,7.05704 -7.98397,15.96795 -7.98394,26.73276 l 0,53.82436 -8.88102,0 0,-97.5118 7.53541,0 0.89707,17.58263 0.62795,0 c 4.0069,-7.1765 8.28294,-12.21505 12.82814,-15.11568 4.54513,-2.90044 10.04717,-4.3507 16.50614,-4.3508 z"
         style="font-size:183.72048950000001000px;font-variant:normal;font-weight:300;font-stretch:normal;text-align:start;line-height:125%;writing-mode:lr-tb;text-anchor:start;font-family:Open Sans Light;-inkscape-font-specification:'Open Sans Light, Light';fill:#ffffff"
         id="path3789" />
    </g>
    <g
       id="g5294"
       clip-path="url(#clipPath5370)">
      <rect
         y="912.36218"
         x="467"
         height="140"
         width="40"
         id="rect3792"
         style="fill:#ffffff" />
      <rect
         style="fill:#ffffff"
         id="rect3794"
         width="40"
         height="70"
         x="417"
         y="982.36218" />
      <rect
         y="962.36218"
         x="367"
         height="90"
         width="40"
         id="rect3796"
         style="fill:#ffffff" />
      <rect
         style="fill:#ffffff"
         id="rect3798"
         width="40"
         height="110"
         x="317"
         y="942.35938" />
      <rect
         y="1002.3594"
         x="267"
         height="50"
         width="40"
         id="rect3800"
         style="fill:#ffffff" />
      <rect
         style="fill:#ffffff"
         id="rect3802"
         width="40"
         height="70"
         x="217"
         y="982.35938" />
      <rect
         y="1022.3594"
         x="167"
         height="30"
         width="40"
         id="rect3804"
         style="fill:#ffffff" />
      <rect
         style="fill:#ffffff"
         id="rect3806"
         width="40"
         height="40"
         x="117"
         y="1012.3594" />
      <rect
         y="1032.3594"
         x="67"
         height="20"
         width="40"
         id="rect3808"
         style="fill:#ffffff" />
      <rect
         style="fill:#ffffff"
         id="rect3810"
         width="40"
         height="9"
         x="17"
         y="1043.3594" />
    </g>
  </g>
</svg>
